<svg xmlns="http://www.w3.org/2000/svg" shape-rendering="geometricPrecision" text-rendering="geometricPrecision" image-rendering="optimizeQuality" fill-rule="evenodd" clip-rule="evenodd" viewBox="0 0 466 512.14"><path d="M232.2 0c86.89 55.08 165.39 81.13 232.75 74.98 11.77 237.97-76.11 378.51-231.85 437.16C82.7 457.24-6.26 322.75.34 71.36 79.42 75.5 157.01 58.41 232.2 0zm-41.64 251.87a157.92 157.92 0 0 1 14.9 14.42c14.56-23.44 30.09-44.96 46.48-64.75 46.36-55.99 25.35-45.2 89.65-45.2l-8.93 9.93c-27.46 30.5-36.72 46.39-59.23 78.9-22.51 32.55-42.63 66.14-60.54 100.71l-5.56 10.75-5.12-10.94c-9.44-20.28-20.76-38.88-34.24-55.51-13.49-16.63-25.27-27.47-43.56-40.02 8.38-27.51 48.27-13.43 66.15 1.71zm41.79-212.23c72.06 45.67 141.23 71.35 197.09 66.24 9.76 197.35-67.19 317.97-196.33 366.61C108.37 426.97 30.53 311.37 36 102.89c72.38 3.79 138.71-18.47 196.35-63.25z"/></svg>